<?xml version="1.0" encoding="UTF-8" standalone="no"?>
<svg
   version="1.1"
   id="Layer_1"
   x="0px"
   y="0px"
   width="100%"
   viewBox="0 0 120 120"
   enable-background="new 0 0 120 120"
   xml:space="preserve"
   sodipodi:docname="FL_Logo-120x120_adobe_express.svg"
   inkscape:version="1.1.1 (3bf5ae0d25, 2021-09-20)"
   xmlns:inkscape="http://www.inkscape.org/namespaces/inkscape"
   xmlns:sodipodi="http://sodipodi.sourceforge.net/DTD/sodipodi-0.dtd"
   xmlns="http://www.w3.org/2000/svg"
   xmlns:svg="http://www.w3.org/2000/svg"><defs
   id="defs19" /><sodipodi:namedview
   id="namedview17"
   pagecolor="#ffffff"
   bordercolor="#666666"
   borderopacity="1.0"
   inkscape:pageshadow="2"
   inkscape:pageopacity="0.0"
   inkscape:pagecheckerboard="0"
   showgrid="false"
   inkscape:zoom="5.9916667"
   inkscape:cx="60"
   inkscape:cy="60"
   inkscape:window-width="1680"
   inkscape:window-height="987"
   inkscape:window-x="-8"
   inkscape:window-y="-8"
   inkscape:window-maximized="1"
   inkscape:current-layer="Layer_1" />
<path
   fill="#7cc8d2"
   opacity="1"
   stroke="none"
   d="m 119.67768,14.170571 c 0,30.354229 0,60.708458 -0.26632,91.195599 -3.44385,6.10829 -7.01834,12.3753 -13.73368,14.8044 -0.0189,0.007 -0.10302,-0.34389 0,0 -30.35423,0 -60.708463,0 -91.195617,-0.26631 C 8.3737184,116.46043 2.4291578,113.25951 9.8787202e-5,106.54412 c -0.0068299972,-0.0189 0.343892002798,-0.10304 0,0 C 9.8787202e-5,76.189896 0.51216799,41.790347 0.77847799,11.303193 4.2222831,5.1948464 6.9623527,2.5996817 13.677675,0.17057075 c 0.0189,-0.00684 0.103021,0.343893 0,0 30.354229,0 64.380224,-0.3337969 94.867375,-0.067489 6.10839,3.44376095 8.70351,7.35216995 11.13263,14.06748925 0.007,0.0189 -0.3439,0.10302 0,0 M 62.73205,15.663174 C 33.508791,14.08734 11.042975,39.142735 15.717239,67.941392 c 0.656155,4.042656 2.295662,5.685684 6.531996,5.350563 4.798227,-0.37957 9.660095,0.108307 14.474564,-0.149468 3.638828,-0.194832 5.08868,0.91005 4.915645,4.747742 -0.277187,6.147713 0.156349,12.328842 -0.157314,18.473038 -0.191246,3.746083 1.366958,5.374053 4.720653,6.326343 7.669178,2.17769 15.34919,2.76277 23.167855,0.97723 C 90.172662,98.916281 105.26967,79.643304 104.34113,58.992413 103.30559,35.962014 87.105135,18.790856 62.73205,15.663174 Z"
   id="path2"
   sodipodi:nodetypes="cccccsccccccccssssssssc" />

<path
   fill="#000000"
   opacity="1"
   stroke="none"
   d="m 141,16.525871 c -0.3439,0.577149 -0.98319,0.787025 -0.99002,0.768123 C 137.58086,10.578675 132.30399,6.710069 126.66426,3.266308 131.5906,3 136.1812,3 141,3 c 0,4.348905 0,8.700325 0,13.525871 z"
   id="path6"
   style="fill:#ffffff" />


<path
   fill="#FCFEFE"
   opacity="1.000000"
   stroke="none"
   d=" M64.484230,16.561712   C88.427460,19.620285 104.627914,36.791443 105.663452,59.821842   C106.591995,80.472733 91.494987,99.745705 70.692963,104.496269   C62.874298,106.281807 55.194286,105.696732 47.525108,103.519043   C44.171413,102.566750 42.613209,100.938782 42.804455,97.192696   C43.118118,91.048500 42.684582,84.867371 42.961769,78.719658   C43.134804,74.881966 41.684952,73.777084 38.046124,73.971916   C33.231655,74.229691 28.369787,73.741814 23.571560,74.121384   C19.335226,74.456505 17.695719,72.813477 17.039564,68.770821   C12.365300,39.972164 34.831116,14.916769 64.484230,16.561712  M38.157185,37.649235   C35.402164,42.145340 31.882093,46.352306 30.050922,51.197563   C26.203733,61.377178 27.043991,62.084473 37.605988,62.144089   C41.120075,62.163921 42.927414,61.662781 43.105904,57.383045   C43.423740,49.762333 47.619534,43.986820 54.679920,41.325901   C58.896854,39.736626 63.752544,39.500004 68.346252,39.328354   C76.350235,39.029263 76.260513,39.251846 75.930618,47.356777   C75.819351,50.090477 74.957115,51.302162 72.134293,51.191105   C68.978676,51.066952 65.790070,50.981556 62.655758,51.287903   C56.722057,51.867867 54.135864,55.881062 55.865463,62.092354   C61.189308,62.092354 66.657837,61.987411 72.116501,62.172848   C73.341949,62.214478 75.241394,62.979118 75.624893,63.908447   C78.136238,69.994049 75.404152,74.018715 69.038269,74.026093   C54.545109,74.042900 54.703163,74.042786 54.713306,88.333649   C54.716148,92.341431 56.295555,93.522469 59.881939,93.766365   C78.604118,95.039536 95.960785,76.599876 93.525757,58.016525   C91.823235,45.023426 85.198318,35.593548 73.019859,30.753374   C60.423157,25.746975 48.874256,28.333477 38.157185,37.649235  z"
   id="path12" />
<path
   fill="#7EC9D3"
   opacity="1.000000"
   stroke="none"
   d=" M38.414070,37.404007   C48.874256,28.333477 60.423157,25.746975 73.019859,30.753374   C85.198318,35.593548 91.823235,45.023426 93.525757,58.016525   C95.960785,76.599876 78.604118,95.039536 59.881939,93.766365   C56.295555,93.522469 54.716148,92.341431 54.713306,88.333649   C54.703163,74.042786 54.545109,74.042900 69.038269,74.026093   C75.404152,74.018715 78.136238,69.994049 75.624893,63.908447   C75.241394,62.979118 73.341949,62.214478 72.116501,62.172848   C66.657837,61.987411 61.189308,62.092354 55.865463,62.092354   C54.135864,55.881062 56.722057,51.867867 62.655758,51.287903   C65.790070,50.981556 68.978676,51.066952 72.134293,51.191105   C74.957115,51.302162 75.819351,50.090477 75.930618,47.356777   C76.260513,39.251846 76.350235,39.029263 68.346252,39.328354   C63.752544,39.500004 58.896854,39.736626 54.679920,41.325901   C47.619534,43.986820 43.423740,49.762333 43.105904,57.383045   C42.927414,61.662781 41.120075,62.163921 37.605988,62.144089   C27.043991,62.084473 26.203733,61.377178 30.050922,51.197563   C31.882093,46.352306 35.402164,42.145340 38.414070,37.404007  z"
   id="path14" />
</svg>
